HIERARCHY
ROOT joint_0
{
	OFFSET 0.000000 0.000000 0.000000
	CHANNELS 6 Xposition Yposition Zposition Zrotation Yrotation Xrotation 
	JOINT joint_1
	{
		OFFSET 14.113007 -2.961990 123.953979
		CHANNELS 3 Zrotation Yrotation Xrotation
		JOINT joint_2
		{
			OFFSET 0.764000 -2.434006 113.871948
			CHANNELS 3 Zrotation Yrotation Xrotation
			JOINT joint_3
			{
				OFFSET 0.186996 -2.169998 113.753052
				CHANNELS 3 Zrotation Yrotation Xrotation
				JOINT joint_4
				{
					OFFSET 16.096001 -2.720001 160.853027
					CHANNELS 3 Zrotation Yrotation Xrotation
					JOINT joint_5
					{
						OFFSET 34.392006 -0.188995 92.567017
						CHANNELS 3 Zrotation Yrotation Xrotation
						End Site
						{
							OFFSET 0.000000 0.000000 0.000000
						}
					}
				}
				JOINT joint_6
				{
					OFFSET 9.183998 -36.684006 89.597046
					CHANNELS 3 Zrotation Yrotation Xrotation
					JOINT joint_7
					{
						OFFSET 0.486000 -164.365997 -28.984009
						CHANNELS 3 Zrotation Yrotation Xrotation
						JOINT joint_8
						{
							OFFSET 38.899002 -34.967010 -291.651978
							CHANNELS 3 Zrotation Yrotation Xrotation
							JOINT joint_9
							{
								OFFSET 41.714005 -45.890991 -258.857056
								CHANNELS 3 Zrotation Yrotation Xrotation
								End Site
								{
									OFFSET 0.000000 0.000000 0.000000
								}
							}
						}
					}
				}
				JOINT joint_10
				{
					OFFSET 8.867004 33.650002 90.817993
					CHANNELS 3 Zrotation Yrotation Xrotation
					JOINT joint_11
					{
						OFFSET 0.018997 164.299999 -29.368042
						CHANNELS 3 Zrotation Yrotation Xrotation
						JOINT joint_12
						{
							OFFSET 29.440994 30.887997 -293.216919
							CHANNELS 3 Zrotation Yrotation Xrotation
							JOINT joint_13
							{
								OFFSET 46.174011 54.490005 -256.422058
								CHANNELS 3 Zrotation Yrotation Xrotation
								End Site
								{
									OFFSET 0.000000 0.000000 0.000000
								}
							}
						}
					}
				}
			}
		}
	}
	JOINT joint_14
	{
		OFFSET -2.264000 -89.466995 -116.150024
		CHANNELS 3 Zrotation Yrotation Xrotation
		JOINT joint_15
		{
			OFFSET -16.400993 -17.452988 -493.781982
			CHANNELS 3 Zrotation Yrotation Xrotation
			JOINT joint_16
			{
				OFFSET -50.497004 -13.404022 -424.754013
				CHANNELS 3 Zrotation Yrotation Xrotation
				JOINT joint_17
				{
					OFFSET 198.546007 -19.341003 -89.309000
					CHANNELS 3 Zrotation Yrotation Xrotation
					End Site
					{
						OFFSET 0.000000 0.000000 0.000000
					}
				}
			}
		}
	}
	JOINT joint_18
	{
		OFFSET -0.867996 96.016006 -110.817993
		CHANNELS 3 Zrotation Yrotation Xrotation
		JOINT joint_19
		{
			OFFSET -10.130997 24.658998 -493.645020
			CHANNELS 3 Zrotation Yrotation Xrotation
			JOINT joint_20
			{
				OFFSET -48.871004 19.434999 -424.714005
				CHANNELS 3 Zrotation Yrotation Xrotation
				JOINT joint_21
				{
					OFFSET 195.579996 24.926001 -94.327003
					CHANNELS 3 Zrotation Yrotation Xrotation
					End Site
					{
						OFFSET 0.000000 0.000000 0.000000
					}
				}
			}
		}
	}
}
MOTION
Frames: 18
Frame Time: 0.016667
-2539.550049 905.851379 1142.276001 0.086191 -4.603027 -1.453135 -0.038514 -0.478246 1.512607 -0.020111 0.051829 -0.312701 -0.022760 -0.066654 0.228650 -0.443927 2.507106 1.194358 0.000000 0.000000 0.000000 -0.775179 2.806503 -0.870026 -0.241306 2.713275 0.073970 0.217392 -2.276081 -1.158195 0.000000 0.000000 0.000000 -0.395201 0.124157 0.032617 0.437846 0.274189 1.375629 0.566351 1.371543 1.525899 0.000000 0.000000 0.000000 3.067304 1.607395 -1.223713 3.054945 0.826844 0.025911 3.048868 -2.874163 1.087784 0.000000 0.000000 0.000000 -1.701534 3.708452 2.580478 -1.922144 -1.054708 0.103209 -1.896957 -2.262766 -0.624130 0.000000 0.000000 0.000000 
-2539.567871 905.818420 1142.244019 0.091998 -4.610151 -1.452917 -0.038760 -0.479087 1.517544 -0.020321 0.052296 -0.314170 -0.022970 -0.066193 0.229999 -0.442645 2.518377 1.190963 0.000000 0.000000 0.000000 -0.779162 2.802751 -0.852119 -0.243966 2.709159 0.044147 0.221551 -2.283593 -1.140510 0.000000 0.000000 0.000000 -0.391342 0.133261 0.014639 0.439834 0.282964 1.405061 0.562170 1.363897 1.511772 0.000000 0.000000 0.000000 3.065423 1.603968 -1.219979 3.052445 0.845597 0.024329 3.046465 -2.862866 1.087797 0.000000 0.000000 0.000000 -1.702734 3.706815 2.581193 -1.922654 -1.041862 0.105117 -1.897061 -2.250850 -0.625695 0.000000 0.000000 0.000000 
-2539.582031 905.789856 1142.212036 0.098434 -4.617255 -1.452925 -0.039573 -0.481749 1.524620 -0.021064 0.052130 -0.315856 -0.023699 -0.065482 0.230656 -0.440621 2.530863 1.185582 0.000000 0.000000 0.000000 -0.782765 2.798959 -0.834353 -0.247089 2.705147 0.012224 0.225316 -2.288163 -1.122028 0.000000 0.000000 0.000000 -0.387951 0.143726 -0.001610 0.441632 0.293153 1.431510 0.557835 1.357773 1.494977 0.000000 0.000000 0.000000 3.063367 1.601367 -1.215796 3.049869 0.863511 0.021950 3.043874 -2.851719 1.087713 0.000000 0.000000 0.000000 -1.704195 3.705466 2.580825 -1.923532 -1.029485 0.109143 -1.897209 -2.238107 -0.627388 0.000000 0.000000 0.000000 
-2539.591553 905.753723 1142.175049 0.103520 -4.624024 -1.452552 -0.039683 -0.486349 1.529004 -0.021082 0.051503 -0.315965 -0.023694 -0.064787 0.231241 -0.439645 2.541493 1.182992 0.000000 0.000000 0.000000 -0.787278 2.796352 -0.816849 -0.250400 2.702196 -0.019035 0.228451 -2.291770 -1.106407 0.000000 0.000000 0.000000 -0.386286 0.155312 -0.016084 0.443436 0.304773 1.457069 0.553402 1.350145 1.479416 0.000000 0.000000 0.000000 3.061645 1.597546 -1.212152 3.047478 0.882833 0.020947 3.041658 -2.840264 1.087826 0.000000 0.000000 0.000000 -1.705083 3.702662 2.581638 -1.923561 -1.014446 0.110877 -1.896909 -2.225204 -0.628884 0.000000 0.000000 0.000000 
-2539.594727 905.707153 1142.133057 0.106153 -4.629633 -1.451617 -0.039313 -0.494928 1.532035 -0.020468 0.052712 -0.317351 -0.023114 -0.065558 0.231699 -0.439864 2.550172 1.183575 0.000000 0.000000 0.000000 -0.790969 2.795183 -0.798653 -0.253873 2.700856 -0.048264 0.230509 -2.293997 -1.095983 0.000000 0.000000 0.000000 -0.383217 0.168641 -0.028281 0.445184 0.317878 1.483085 0.548487 1.338418 1.466018 0.000000 0.000000 0.000000 3.060766 1.591047 -1.209834 3.045608 0.904801 0.023025 3.040403 -2.829069 1.088343 0.000000 0.000000 0.000000 -1.704678 3.696498 2.585062 -1.921718 -0.994565 0.107381 -1.895599 -2.212028 -0.629930 0.000000 0.000000 0.000000 
-2539.593506 905.654053 1142.088013 0.107896 -4.634484 -1.450249 -0.038179 -0.506729 1.532351 -0.019010 0.054431 -0.316665 -0.021695 -0.066254 0.231829 -0.441000 2.556792 1.186585 0.000000 0.000000 0.000000 -0.796511 2.795252 -0.780452 -0.257577 2.700467 -0.077331 0.231959 -2.295509 -1.088563 0.000000 0.000000 0.000000 -0.382473 0.182896 -0.039978 0.447021 0.332340 1.509377 0.543418 1.324926 1.453839 0.000000 0.000000 0.000000 3.060381 1.582911 -1.208133 3.044065 0.928399 0.026287 3.039629 -2.817271 1.089134 0.000000 0.000000 0.000000 -1.703858 3.688342 2.589470 -1.919163 -0.972131 0.101729 -1.893901 -2.197848 -0.630917 0.000000 0.000000 0.000000 
-2539.589355 905.602173 1142.037964 0.109530 -4.639244 -1.447877 -0.038149 -0.519612 1.531627 -0.018639 0.055734 -0.316597 -0.021383 -0.068284 0.231907 -0.442411 2.565068 1.190342 0.000000 0.000000 0.000000 -0.797747 2.796318 -0.762191 -0.261697 2.701906 -0.107590 0.233368 -2.297007 -1.081375 0.000000 0.000000 0.000000 -0.379149 0.198433 -0.050972 0.449162 0.347677 1.537158 0.538446 1.312311 1.441157 0.000000 0.000000 0.000000 3.059892 1.573831 -1.207164 3.042342 0.953585 0.028604 3.038546 -2.803483 1.089980 0.000000 0.000000 0.000000 -1.703154 3.680984 2.591822 -1.916940 -0.951524 0.097976 -1.892109 -2.181491 -0.632136 0.000000 0.000000 0.000000 
-2539.579834 905.557922 1141.984985 0.110842 -4.643495 -1.444655 -0.039191 -0.536329 1.530480 -0.019210 0.058521 -0.315925 -0.022027 -0.069989 0.230741 -0.444298 2.572306 1.195360 0.000000 0.000000 0.000000 -0.794953 2.797660 -0.743302 -0.266304 2.704412 -0.139927 0.234521 -2.298149 -1.075381 0.000000 0.000000 0.000000 -0.372698 0.213999 -0.063173 0.451867 0.362585 1.567632 0.534134 1.303000 1.428243 0.000000 0.000000 0.000000 3.059466 1.562632 -1.206844 3.040533 0.981841 0.029391 3.037178 -2.786610 1.090998 0.000000 0.000000 0.000000 -1.703183 3.675054 2.590738 -1.915875 -0.934480 0.098829 -1.890589 -2.162234 -0.633857 0.000000 0.000000 0.000000 
-2539.568359 905.515869 1141.928955 0.112754 -4.647357 -1.440395 -0.040766 -0.554520 1.528230 -0.020277 0.060762 -0.315942 -0.023168 -0.072110 0.230669 -0.446233 2.579251 1.200500 0.000000 0.000000 0.000000 -0.790544 2.800172 -0.725047 -0.271310 2.708443 -0.174079 0.235834 -2.300030 -1.069198 0.000000 0.000000 0.000000 -0.366623 0.230392 -0.076569 0.454913 0.378445 1.600766 0.529722 1.294261 1.414085 0.000000 0.000000 0.000000 3.058695 1.550395 -1.207577 3.038294 1.011234 0.029602 3.035268 -2.767097 1.092028 0.000000 0.000000 0.000000 -1.703788 3.669438 2.587378 -1.915573 -0.919186 0.101852 -1.889324 -2.140271 -0.636045 0.000000 0.000000 0.000000 
-2539.559814 905.470459 1141.864990 0.114553 -4.651377 -1.434761 -0.042809 -0.573508 1.523691 -0.021814 0.062723 -0.315016 -0.024765 -0.073803 0.229771 -0.448231 2.587541 1.205820 0.000000 0.000000 0.000000 -0.786392 2.802709 -0.707024 -0.276329 2.712448 -0.209962 0.238056 -2.304208 -1.059913 0.000000 0.000000 0.000000 -0.361363 0.247584 -0.087525 0.457864 0.395233 1.635060 0.524659 1.283023 1.399226 0.000000 0.000000 0.000000 3.058278 1.539431 -1.208729 3.036614 1.037696 0.027873 3.033420 -2.744066 1.093430 0.000000 0.000000 0.000000 -1.704136 3.664145 2.582354 -1.915148 -0.905389 0.105575 -1.887605 -2.114833 -0.638458 0.000000 0.000000 0.000000 
-2539.557861 905.421448 1141.800049 0.117490 -4.656183 -1.427780 -0.045836 -0.592341 1.518039 -0.024308 0.065928 -0.314825 -0.027352 -0.076075 0.228788 -0.449884 2.595344 1.210218 0.000000 0.000000 0.000000 -0.782108 2.805099 -0.688701 -0.281434 2.716333 -0.249654 0.241953 -2.312688 -1.044975 0.000000 0.000000 0.000000 -0.358283 0.265563 -0.096919 0.460778 0.413188 1.671401 0.518843 1.268373 1.384169 0.000000 0.000000 0.000000 3.057331 1.531629 -1.210124 3.034791 1.058402 0.023885 3.030725 -2.714823 1.095054 0.000000 0.000000 0.000000 -1.704798 3.659934 2.575543 -1.915258 -0.894131 0.110198 -1.885904 -2.084401 -0.641514 0.000000 0.000000 0.000000 
-2539.559570 905.368958 1141.729004 0.120454 -4.660922 -1.419503 -0.048847 -0.611222 1.510135 -0.026831 0.067306 -0.313988 -0.029915 -0.077283 0.227750 -0.451628 2.604683 1.214866 0.000000 0.000000 0.000000 -0.779400 2.807984 -0.670363 -0.286635 2.720440 -0.291948 0.246939 -2.324551 -1.027013 0.000000 0.000000 0.000000 -0.357154 0.283995 -0.105154 0.463667 0.431939 1.709759 0.512366 1.251502 1.368032 0.000000 0.000000 0.000000 3.056587 1.524994 -1.211969 3.033378 1.075774 0.018146 3.027942 -2.681680 1.097019 0.000000 0.000000 0.000000 -1.705175 3.655749 2.567254 -1.915182 -0.884352 0.115212 -1.883692 -2.049925 -0.644838 0.000000 0.000000 0.000000 
-2539.562012 905.312439 1141.630981 0.123316 -4.664026 -1.410241 -0.051795 -0.633451 1.499653 -0.029239 0.067581 -0.311898 -0.032319 -0.076989 0.226451 -0.452396 2.617342 1.216929 0.000000 0.000000 0.000000 -0.779650 2.812037 -0.653798 -0.291554 2.725147 -0.332985 0.252634 -2.339049 -1.007586 0.000000 0.000000 0.000000 -0.354308 0.303626 -0.108232 0.465704 0.451434 1.746584 0.504265 1.229596 1.348809 0.000000 0.000000 0.000000 3.056029 1.517324 -1.214710 3.032151 1.091477 0.012507 3.025267 -2.647929 1.099092 0.000000 0.000000 0.000000 -1.705800 3.648076 2.558248 -1.915023 -0.871725 0.119982 -1.881489 -2.014509 -0.648288 0.000000 0.000000 0.000000 
-2539.645020 905.228699 1141.532959 0.124144 -4.682885 -1.389430 -0.055975 -0.672892 1.465685 -0.032622 0.063905 -0.306866 -0.035702 -0.080965 0.223366 -0.453588 2.666221 1.219938 0.000000 0.000000 0.000000 -0.785538 2.807545 -0.583683 -0.304459 2.721398 -0.428557 0.254724 -2.323897 -0.977951 0.000000 0.000000 0.000000 -0.417818 0.331845 -0.204928 0.482941 0.493946 1.918234 0.493542 1.218852 1.301335 0.000000 0.000000 0.000000 3.056788 1.523696 -1.226804 3.032669 1.105251 0.004578 3.023713 -2.609000 1.102159 0.000000 0.000000 0.000000 -1.706620 3.650402 2.536953 -1.915757 -0.854876 0.125824 -1.879837 -1.972922 -0.652782 0.000000 0.000000 0.000000 
-2539.729492 905.140747 1141.407959 0.124637 -4.700384 -1.367866 -0.059409 -0.713799 1.429948 -0.035292 0.056978 -0.301392 -0.038291 -0.083268 0.219844 -0.454403 2.719045 1.221944 0.000000 0.000000 0.000000 -0.796177 2.804741 -0.514847 -0.317066 2.718438 -0.522907 0.257599 -2.312215 -0.947307 0.000000 0.000000 0.000000 -0.481668 0.361312 -0.296137 0.499417 0.537601 2.088244 0.481321 1.203449 1.251053 0.000000 0.000000 0.000000 3.057894 1.529181 -1.239330 3.033555 1.117544 -0.003442 3.022433 -2.569706 1.105384 0.000000 0.000000 0.000000 -1.707436 3.649386 2.515278 -1.916130 -0.834662 0.131202 -1.878011 -1.930989 -0.657236 0.000000 0.000000 0.000000 
-2539.581055 905.123596 1141.166016 0.132154 -4.663425 -1.379110 -0.059976 -0.710431 1.459031 -0.035971 0.048235 -0.303561 -0.038485 -0.064191 0.221711 -0.449983 2.682700 1.210704 0.000000 0.000000 0.000000 -0.802084 2.832395 -0.610367 -0.304939 2.743394 -0.450615 0.273775 -2.399931 -0.943500 0.000000 0.000000 0.000000 -0.330098 0.368901 -0.088390 0.466752 0.512612 1.851005 0.469989 1.136210 1.268338 0.000000 0.000000 0.000000 3.056023 1.487151 -1.226055 3.030070 1.130111 -0.002784 3.018563 -2.543924 1.106176 0.000000 0.000000 0.000000 -1.708918 3.600938 2.530323 -1.913221 -0.811178 0.130844 -1.874750 -1.905045 -0.658989 0.000000 0.000000 0.000000 
-2539.201660 905.258362 1140.603027 0.143197 -4.590864 -1.464765 -0.055316 -0.639474 1.637643 -0.032694 0.039321 -0.327568 -0.034024 -0.004376 0.235455 -0.433478 2.577968 1.167812 0.000000 0.000000 0.000000 -0.835223 2.881495 -0.973368 -0.250429 2.779004 -0.086210 0.292164 -2.594009 -1.044138 0.000000 0.000000 0.000000 0.327726 0.271644 0.665928 0.347524 0.276511 0.843112 0.491830 1.092534 1.444782 0.000000 0.000000 0.000000 3.049347 1.397399 -1.150695 3.019446 1.181085 0.023767 3.013884 -2.557775 1.102771 0.000000 0.000000 0.000000 -1.703415 3.510720 2.627032 -1.896839 -0.744475 0.117157 -1.865196 -1.935615 -0.650532 0.000000 0.000000 0.000000 
-2538.588623 905.466003 1139.921997 0.160191 -4.464895 -1.584213 -0.047035 -0.521788 1.885418 -0.026497 0.027029 -0.368477 -0.026224 0.078199 0.257427 -0.417462 2.378568 1.124986 0.000000 0.000000 0.000000 -0.871736 2.959922 -1.494802 -0.170860 2.839463 0.437732 0.324795 -2.886743 -1.166681 0.000000 0.000000 0.000000 1.201127 0.156060 1.711373 0.178871 -0.028575 -0.550983 0.509986 0.991817 1.668684 0.000000 0.000000 0.000000 3.039742 1.261365 -1.048274 3.004752 1.232020 0.058807 3.006854 -2.584566 1.097087 0.000000 0.000000 0.000000 -1.698194 3.374457 2.761383 -1.876830 -0.674563 0.097902 -1.853915 -1.982987 -0.639127 0.000000 0.000000 0.000000 
